<svg width="651" height="651" viewBox="0 0 651 651" fill="none" xmlns="http://www.w3.org/2000/svg">
<path d="M0 87C0 38.9512 38.9512 0 87 0H651V564C651 612.049 612.049 651 564 651H0V87Z" fill="#0A6392"/>
<path d="M178.37 252.506V225.52C178.37 222.423 179.517 219.407 181.813 216.471C184.856 212.574 188.967 210.598 194.145 210.545V221.836C191.903 221.889 190.461 222.93 189.821 224.959C189.714 225.173 189.661 225.359 189.661 225.52V252.506C189.661 253.36 190.114 254.188 191.022 254.988C191.876 255.736 192.917 256.109 194.145 256.109V267.4C188.166 267.4 183.655 264.891 180.612 259.873C179.117 257.311 178.37 254.855 178.37 252.506ZM198.469 267.4V256.109C198.469 256.109 199.083 255.869 200.311 255.389C201.058 254.855 201.566 254.294 201.832 253.707C202.099 253.013 202.233 252.025 202.233 250.744V249.783L213.284 252.426C213.284 257.07 211.415 260.914 207.678 263.957C204.849 266.253 201.779 267.4 198.469 267.4ZM198.469 221.836V210.545C202.366 210.545 205.89 212.253 209.039 215.67C211.869 218.766 213.284 222.103 213.284 225.68L202.233 228.562V227.361C202.233 226.027 202.099 225.039 201.832 224.398C201.619 223.865 201.219 223.384 200.631 222.957C200.097 222.53 199.617 222.236 199.19 222.076L198.469 221.836ZM219.158 251.385V225.039C219.158 222.21 220.359 219.327 222.762 216.391C225.965 212.547 230.022 210.598 234.934 210.545V221.836C232.745 221.889 231.303 223.117 230.609 225.52C230.503 225.893 230.449 226.16 230.449 226.32V251.385C230.449 253.574 231.65 255.068 234.053 255.869C234.426 255.976 234.693 256.029 234.853 256.029V267.4C231.811 267.4 228.768 266.306 225.725 264.117C221.4 260.914 219.212 256.67 219.158 251.385ZM239.258 267.4V256.029C240.112 256.029 241.073 255.576 242.141 254.668C243.155 253.76 243.689 252.666 243.742 251.385V226.32C243.742 225.359 243.288 224.345 242.381 223.277C241.527 222.37 240.486 221.889 239.258 221.836V210.545C244.65 210.545 248.974 212.867 252.23 217.512C254.099 220.181 255.033 222.69 255.033 225.039V251.385C255.033 257.311 252.391 261.848 247.105 264.998C244.329 266.6 241.713 267.4 239.258 267.4ZM262.669 267V231.445H263.39L273.96 256.83V267H262.669ZM262.669 218.312V210.945H271.478L286.773 248.021L295.261 228.883H296.062V254.908L290.697 267H282.929L262.669 218.312ZM300.386 267V210.945H311.677V267H300.386ZM319.634 267V231.445H320.354L330.925 256.83V267H319.634ZM319.634 218.312V210.945H328.442L343.737 248.021L352.226 228.883H353.026V254.908L347.661 267H339.894L319.634 218.312ZM357.351 267V210.945H368.642V267H357.351ZM376.598 267V210.945H387.889V267H376.598ZM395.846 267V227.602H396.486L407.137 244.738V267H395.846ZM395.846 218.312V210.945H405.055L431.48 253.547V267H426.115L395.846 218.312ZM420.189 227.121V210.945H431.48V244.258H430.84L420.189 227.121ZM439.117 251.625V225.039C439.597 221.249 441.225 217.912 444.002 215.029C446.938 212.04 450.541 210.545 454.812 210.545V221.836C452.516 221.889 451.102 222.984 450.568 225.119C450.461 225.6 450.408 226 450.408 226.32V251.625C450.461 253.814 451.689 255.255 454.091 255.949C454.412 256.056 454.652 256.109 454.812 256.109V267.4C451.716 267.4 448.619 266.306 445.523 264.117C441.306 261.021 439.17 256.857 439.117 251.625ZM459.136 267.4V256.109C459.724 256.109 460.471 255.629 461.378 254.668C462.179 253.76 462.58 252.799 462.58 251.785V249.143H459.136V238.732H473.951V252.906C473.951 256.216 472.242 259.473 468.826 262.676C465.569 265.772 462.339 267.347 459.136 267.4ZM459.136 221.836V210.545C463.087 210.545 466.61 212.253 469.707 215.67C472.536 218.713 473.951 222.049 473.951 225.68L462.9 229.764V226.641C462.9 224.132 461.939 222.583 460.017 221.996C459.697 221.889 459.403 221.836 459.136 221.836ZM243.356 323.348L253.526 319.744C253.526 321.079 253.9 322.253 254.647 323.268C255.395 324.282 256.142 324.949 256.889 325.27L258.01 325.83V336.24C253.473 336.24 249.602 334.265 246.399 330.314C244.424 327.805 243.41 325.483 243.356 323.348ZM243.997 295.32C243.997 289.448 246.506 285.044 251.524 282.107C253.82 280.719 255.982 279.999 258.01 279.945V290.516C256.676 290.889 255.688 291.85 255.048 293.398C254.834 293.879 254.727 294.386 254.727 294.92C254.727 297.109 256.356 298.977 259.612 300.525C260.306 300.846 261.427 301.326 262.975 301.967C265.538 302.981 267.353 303.809 268.421 304.449C272.745 307.012 275.628 309.628 277.069 312.297C278.137 314.379 278.671 316.701 278.671 319.264C278.671 324.122 276.829 328.286 273.145 331.756C269.995 334.745 266.419 336.24 262.415 336.24V325.83C264.497 325.563 265.965 324.469 266.819 322.547C267.193 321.693 267.38 320.758 267.38 319.744C267.38 317.021 265.351 314.779 261.294 313.018C260.546 312.697 259.372 312.243 257.77 311.656C255.902 311.016 254.594 310.508 253.846 310.135C249.255 307.946 246.319 305.117 245.038 301.646C244.344 299.778 243.997 297.669 243.997 295.32ZM262.415 290.516V279.945C266.899 279.945 270.663 281.84 273.706 285.631C275.467 287.873 276.375 289.902 276.428 291.717L266.018 295.16C266.018 292.918 264.924 291.396 262.735 290.596C262.522 290.542 262.415 290.516 262.415 290.516ZM284.545 320.385V294.039C284.545 291.21 285.746 288.327 288.149 285.391C291.352 281.547 295.409 279.598 300.321 279.545V290.836C298.132 290.889 296.69 292.117 295.996 294.52C295.89 294.893 295.836 295.16 295.836 295.32V320.385C295.836 322.574 297.037 324.068 299.44 324.869C299.813 324.976 300.08 325.029 300.24 325.029V336.4C297.197 336.4 294.155 335.306 291.112 333.117C286.787 329.914 284.599 325.67 284.545 320.385ZM304.645 336.4V325.029C305.499 325.029 306.46 324.576 307.528 323.668C308.542 322.76 309.076 321.666 309.129 320.385V295.32C309.129 294.359 308.675 293.345 307.768 292.277C306.914 291.37 305.873 290.889 304.645 290.836V279.545C310.037 279.545 314.361 281.867 317.617 286.512C319.486 289.181 320.42 291.69 320.42 294.039V320.385C320.42 326.311 317.778 330.848 312.492 333.998C309.716 335.6 307.1 336.4 304.645 336.4ZM327.736 320.385V294.039C327.736 291.21 328.937 288.327 331.34 285.391C334.543 281.547 338.6 279.598 343.511 279.545V290.836C341.323 290.889 339.881 292.117 339.187 294.52C339.08 294.893 339.027 295.16 339.027 295.32V320.385C339.027 322.574 340.228 324.068 342.631 324.869C343.004 324.976 343.271 325.029 343.431 325.029V336.4C340.388 336.4 337.345 335.306 334.302 333.117C329.978 329.914 327.789 325.67 327.736 320.385ZM347.836 336.4V325.029C348.69 325.029 349.651 324.576 350.719 323.668C351.733 322.76 352.267 321.666 352.32 320.385V295.32C352.32 294.359 351.866 293.345 350.959 292.277C350.105 291.37 349.064 290.889 347.836 290.836V279.545C353.228 279.545 357.552 281.867 360.808 286.512C362.677 289.181 363.611 291.69 363.611 294.039V320.385C363.611 326.311 360.969 330.848 355.683 333.998C352.907 335.6 350.291 336.4 347.836 336.4ZM371.247 336V296.602H371.888L382.538 313.738V336H371.247ZM371.247 287.312V279.945H380.456L406.882 322.547V336H401.517L371.247 287.312ZM395.591 296.121V279.945H406.882V313.258H406.241L395.591 296.121Z" fill="#60C8FF"/>
<path opacity="0.7" d="M0 538.05C0 490.001 38.9512 451.05 87 451.05H651V564C651 612.049 612.049 651 564 651H0V538.05Z" fill="#5E0202"/>
<path d="M195.895 540.207V568.287H211.695V563.007H202.735V540.207H195.895ZM242.597 554.167C242.597 545.727 236.237 539.807 228.237 539.807C220.277 539.807 213.797 545.727 213.797 554.167C213.797 562.607 220.277 568.567 228.237 568.567C236.197 568.567 242.597 562.607 242.597 554.167ZM220.797 554.167C220.797 549.167 223.677 546.007 228.237 546.007C232.717 546.007 235.637 549.167 235.637 554.167C235.637 559.087 232.717 562.327 228.237 562.327C223.677 562.327 220.797 559.087 220.797 554.167ZM261.242 549.327C261.242 551.527 260.042 552.847 257.482 552.847H253.242V545.887H257.482C260.042 545.887 261.242 547.247 261.242 549.327ZM246.402 540.207V568.287H253.242V557.687H254.882L260.722 568.287H268.442L261.962 557.167C266.282 555.887 268.202 552.567 268.202 549.047C268.202 544.167 264.762 540.207 257.882 540.207H246.402ZM289.696 540.207H272.496V568.287H289.696V562.807H279.336V556.647H288.496V551.367H279.336V545.687H289.696V540.207ZM294.137 568.287H300.977V551.407L307.297 568.287H312.817L319.097 551.447V568.287H325.937V540.207H317.897L310.097 559.647L302.217 540.207H294.137V568.287ZM339.332 568.287H346.172V540.207H339.332V568.287ZM357.969 552.767V545.727H361.689C364.409 545.727 365.569 547.087 365.569 549.247C365.569 551.407 364.409 552.767 361.689 552.767H357.969ZM372.529 549.247C372.529 544.087 369.089 540.207 362.209 540.207H351.129V568.287H357.969V558.207H362.209C369.369 558.207 372.529 553.887 372.529 549.247ZM396.49 559.927C396.49 550.527 382.61 552.727 382.61 547.847C382.61 546.087 383.85 545.247 385.49 545.287C387.33 545.327 388.61 546.407 388.73 548.207H396.13C395.85 542.847 391.73 539.807 385.61 539.807C379.73 539.807 375.37 542.767 375.37 548.087C375.29 558.047 389.33 555.247 389.33 560.447C389.33 562.087 388.05 563.087 386.05 563.087C384.13 563.087 382.77 562.047 382.57 559.887H375.29C375.49 565.567 380.21 568.567 386.25 568.567C392.81 568.567 396.49 564.647 396.49 559.927ZM400.579 556.967C400.579 564.727 405.659 568.567 412.179 568.567C418.659 568.567 424.099 564.727 424.099 556.967V540.207H417.259V557.007C417.259 560.327 415.539 562.247 412.299 562.247C409.059 562.247 407.419 560.327 407.419 557.007V540.207H400.579V556.967ZM428.902 568.287H435.742V551.407L442.062 568.287H447.582L453.862 551.447V568.287H460.702V540.207H452.662L444.862 559.647L436.982 540.207H428.902V568.287Z" fill="white"/>
</svg>
